<?xml version="1.0" encoding="utf-8" standalone="no"?>
<!DOCTYPE svg PUBLIC "-//W3C//DTD SVG 1.1//EN"
  "http://www.w3.org/Graphics/SVG/1.1/DTD/svg11.dtd">
<svg xmlns:xlink="http://www.w3.org/1999/xlink" width="460.8pt" height="345.6pt" viewBox="0 0 460.8 345.6" xmlns="http://www.w3.org/2000/svg" version="1.1">
 <metadata>
  <rdf:RDF xmlns:dc="http://purl.org/dc/elements/1.1/" xmlns:cc="http://creativecommons.org/ns#" xmlns:rdf="http://www.w3.org/1999/02/22-rdf-syntax-ns#">
   <cc:Work>
    <dc:type rdf:resource="http://purl.org/dc/dcmitype/StillImage"/>
    <dc:date>2023-04-21T23:47:41.025648</dc:date>
    <dc:format>image/svg+xml</dc:format>
    <dc:creator>
     <cc:Agent>
      <dc:title>Matplotlib v3.7.1, https://matplotlib.org/</dc:title>
     </cc:Agent>
    </dc:creator>
   </cc:Work>
  </rdf:RDF>
 </metadata>
 <defs>
  <style type="text/css">*{stroke-linejoin: round; stroke-linecap: butt}</style>
 </defs>
 <g id="figure_1">
  <g id="patch_1">
   <path d="M 0 345.6 
L 460.8 345.6 
L 460.8 0 
L 0 0 
z
" style="fill: #ffffff"/>
  </g>
  <g id="axes_1">
   <g id="patch_2">
    <path d="M 138.305512 119.039172 
C 130.443523 116.940972 122.213742 116.60849 114.208117 118.065641 
C 106.202493 119.522791 98.61768 122.73378 91.999236 127.467649 
C 85.380792 132.201517 79.891297 138.34198 75.925596 145.447367 
C 71.959896 152.552755 69.615406 160.448526 69.060761 168.566757 
C 68.506116 176.684989 69.754939 184.826259 72.717407 192.404985 
C 75.679875 199.983712 80.283215 206.813726 86.19632 212.403762 
C 92.109425 217.993798 99.187042 222.206538 106.920094 224.73897 
C 114.653147 227.271402 122.851675 228.061318 130.92598 227.0519 
C 130.591353 226.359189 130.348087 225.62595 130.202288 224.870592 
C 130.056489 224.115234 130.009388 223.344131 130.062167 222.576643 
C 119.784079 217.833566 111.204497 210.049402 105.48693 200.279792 
C 99.769363 190.510181 97.184508 179.217663 98.082906 167.933659 
C 98.981305 156.649655 103.320423 145.908403 110.511817 137.166566 
C 117.70321 128.424728 127.406404 122.096184 138.305512 119.039172 
" clip-path="url(#p355b507be9)" style="fill: #1f77b4; opacity: 0.5"/>
   </g>
   <g id="patch_3">
    <path d="M 138.305512 119.039172 
C 149.211207 121.949674 158.964929 128.139135 166.242402 136.767206 
C 173.519876 145.395276 177.976131 156.052964 179.006136 167.293262 
C 180.036142 178.53356 177.591073 189.823652 172.0029 199.630666 
C 166.414727 209.437681 157.948343 217.296743 147.753239 222.140818 
C 147.857686 223.022452 147.829434 223.914781 147.669423 224.788042 
C 147.509413 225.661302 147.219444 226.505676 146.809188 227.292999 
C 154.930554 228.244858 163.162842 227.385096 170.912282 224.775726 
C 178.661721 222.166355 185.737406 217.871656 191.628989 212.201393 
C 197.520571 206.531131 202.082914 199.624989 204.986949 191.981089 
C 207.890983 184.337189 209.065169 176.143835 208.424816 167.99199 
C 207.784464 159.840146 205.345347 151.930628 201.283392 144.833928 
C 197.221437 137.737228 191.63671 131.628171 184.93202 126.947385 
C 178.22733 122.266599 170.567846 119.129394 162.506023 117.762047 
C 154.4442 116.3947 146.178639 116.830896 138.305512 119.039172 
" clip-path="url(#p355b507be9)" style="fill: #ff7f0e; opacity: 0.5"/>
   </g>
   <g id="patch_4">
    <path d="M 138.305512 119.039172 
C 127.406404 122.096184 117.70321 128.424728 110.511817 137.166566 
C 103.320423 145.908403 98.981305 156.649655 98.082906 167.933659 
C 97.184508 179.217663 99.769363 190.510181 105.48693 200.279792 
C 111.204497 210.049402 119.784079 217.833566 130.062167 222.576643 
C 130.21399 220.368895 131.185115 218.295545 132.783983 216.76557 
C 134.382851 215.235595 136.496936 214.356672 138.709227 214.302171 
C 140.921518 214.247671 143.076317 215.021429 144.748583 216.470819 
C 146.420848 217.920209 147.492888 219.943224 147.753239 222.140818 
C 157.948343 217.296743 166.414727 209.437681 172.0029 199.630666 
C 177.591073 189.823652 180.036142 178.53356 179.006136 167.293262 
C 177.976131 156.052964 173.519876 145.395276 166.242402 136.767206 
C 158.964929 128.139135 149.211207 121.949674 138.305512 119.039172 
" clip-path="url(#p355b507be9)" style="fill: #c8ac88; opacity: 0.5"/>
   </g>
   <g id="patch_5">
    <path d="M 130.92598 227.0519 
C 131.642782 228.535755 132.758386 229.791392 134.147561 230.67786 
C 135.536736 231.564328 137.145481 232.047168 138.793208 232.07218 
C 140.440936 232.097191 142.063595 231.663402 143.479036 230.819507 
C 144.894477 229.975612 146.047678 228.754414 146.809188 227.292999 
C 145.372678 227.124634 143.943319 226.900021 142.524406 226.619677 
C 141.105492 226.339333 139.698113 226.003474 138.305512 225.612873 
C 137.093741 225.936269 135.871292 226.218237 134.640296 226.458284 
C 133.4093 226.698331 132.170474 226.896318 130.92598 227.0519 
" clip-path="url(#p355b507be9)" style="fill: #2ca02c; opacity: 0.5"/>
   </g>
   <g id="patch_6">
    <path d="M 130.92598 227.0519 
C 132.170474 226.896318 133.4093 226.698331 134.640296 226.458284 
C 135.871292 226.218237 137.093741 225.936269 138.305512 225.612873 
C 136.894123 225.217002 135.499019 224.765214 134.123501 224.258576 
C 132.747983 223.751939 131.393136 223.190852 130.062167 222.576643 
C 130.009388 223.344131 130.056489 224.115234 130.202288 224.870592 
C 130.348087 225.62595 130.591353 226.359189 130.92598 227.0519 
" clip-path="url(#p355b507be9)" style="fill: #34c39d; opacity: 0.5"/>
   </g>
   <g id="patch_7">
    <path d="M 147.753239 222.140818 
C 146.235618 222.861897 144.685838 223.513246 143.108749 224.092829 
C 141.53166 224.672412 139.928909 225.179622 138.305512 225.612873 
C 139.698113 226.003474 141.105492 226.339333 142.524406 226.619677 
C 143.943319 226.900021 145.372678 227.124634 146.809188 227.292999 
C 147.219444 226.505676 147.509413 225.661302 147.669423 224.788042 
C 147.829434 223.914781 147.857686 223.022452 147.753239 222.140818 
" clip-path="url(#p355b507be9)" style="fill: #d1c929; opacity: 0.5"/>
   </g>
   <g id="patch_8">
    <path d="M 130.062167 222.576643 
C 131.393136 223.190852 132.747983 223.751939 134.123501 224.258576 
C 135.499019 224.765214 136.894123 225.217002 138.305512 225.612873 
C 139.928909 225.179622 141.53166 224.672412 143.108749 224.092829 
C 144.685838 223.513246 146.235618 222.861897 147.753239 222.140818 
C 147.492888 219.943224 146.420848 217.920209 144.748583 216.470819 
C 143.076317 215.021429 140.921518 214.247671 138.709227 214.302171 
C 136.496936 214.356672 134.382851 215.235595 132.783983 216.76557 
C 131.185115 218.295545 130.21399 220.368895 130.062167 222.576643 
" clip-path="url(#p355b507be9)" style="fill: #84a25f; opacity: 0.5"/>
   </g>
   <g id="text_1">
    <text style="font: 10px 'DejaVu Sans', 'Bitstream Vera Sans', 'Computer Modern Sans Serif', 'Lucida Grande', 'Verdana', 'Geneva', 'Lucid', 'Arial', 'Helvetica', 'Avant Garde', sans-serif; text-anchor: middle" x="84.860868" y="175.594013" transform="rotate(-0 84.860868 175.594013)">4816</text>
   </g>
   <g id="text_2">
    <text style="font: 10px 'DejaVu Sans', 'Bitstream Vera Sans', 'Computer Modern Sans Serif', 'Lucida Grande', 'Verdana', 'Geneva', 'Lucid', 'Arial', 'Helvetica', 'Avant Garde', sans-serif; text-anchor: middle" x="191.972038" y="175.66628" transform="rotate(-0 191.972038 175.66628)">4909</text>
   </g>
   <g id="text_3">
    <text style="font: 10px 'DejaVu Sans', 'Bitstream Vera Sans', 'Computer Modern Sans Serif', 'Lucida Grande', 'Verdana', 'Geneva', 'Lucid', 'Arial', 'Helvetica', 'Avant Garde', sans-serif; text-anchor: middle" x="138.614193" y="187.99736" transform="rotate(-0 138.614193 187.99736)">9615</text>
   </g>
   <g id="text_4">
    <text style="font: 10px 'DejaVu Sans', 'Bitstream Vera Sans', 'Computer Modern Sans Serif', 'Lucida Grande', 'Verdana', 'Geneva', 'Lucid', 'Arial', 'Helvetica', 'Avant Garde', sans-serif; text-anchor: middle" x="138.80056" y="234.184393" transform="rotate(-0 138.80056 234.184393)">105</text>
   </g>
   <g id="text_5">
    <text style="font: 10px 'DejaVu Sans', 'Bitstream Vera Sans', 'Computer Modern Sans Serif', 'Lucida Grande', 'Verdana', 'Geneva', 'Lucid', 'Arial', 'Helvetica', 'Avant Garde', sans-serif; text-anchor: middle" x="131.711568" y="227.776601" transform="rotate(-0 131.711568 227.776601)">24</text>
   </g>
   <g id="text_6">
    <text style="font: 10px 'DejaVu Sans', 'Bitstream Vera Sans', 'Computer Modern Sans Serif', 'Lucida Grande', 'Verdana', 'Geneva', 'Lucid', 'Arial', 'Helvetica', 'Avant Garde', sans-serif; text-anchor: middle" x="145.920533" y="227.718145" transform="rotate(-0 145.920533 227.718145)">33</text>
   </g>
   <g id="text_7">
    <text style="font: 10px 'DejaVu Sans', 'Bitstream Vera Sans', 'Computer Modern Sans Serif', 'Lucida Grande', 'Verdana', 'Geneva', 'Lucid', 'Arial', 'Helvetica', 'Avant Garde', sans-serif; text-anchor: middle" x="138.732095" y="218.084215" transform="rotate(-0 138.732095 218.084215)">219</text>
   </g>
   <g id="text_8">
    <text style="font: 12px 'DejaVu Sans', 'Bitstream Vera Sans', 'Computer Modern Sans Serif', 'Lucida Grande', 'Verdana', 'Geneva', 'Lucid', 'Arial', 'Helvetica', 'Avant Garde', sans-serif; text-anchor: end" x="96.50843" y="117.174147" transform="rotate(-0 96.50843 117.174147)">Behavior</text>
   </g>
   <g id="text_9">
    <text style="font: 12px 'DejaVu Sans', 'Bitstream Vera Sans', 'Computer Modern Sans Serif', 'Lucida Grande', 'Verdana', 'Geneva', 'Lucid', 'Arial', 'Helvetica', 'Avant Garde', sans-serif; text-anchor: start" x="180.923168" y="116.982797" transform="rotate(-0 180.923168 116.982797)">Blended</text>
   </g>
   <g id="text_10">
    <text style="font: 12px 'DejaVu Sans', 'Bitstream Vera Sans', 'Computer Modern Sans Serif', 'Lucida Grande', 'Verdana', 'Geneva', 'Lucid', 'Arial', 'Helvetica', 'Avant Garde', sans-serif; text-anchor: middle" x="138.928091" y="242.080015" transform="rotate(-0 138.928091 242.080015)">Growth</text>
   </g>
  </g>
  <g id="axes_2">
   <g id="patch_9">
    <path d="M 329.563578 118.242723 
C 322.502216 116.261224 315.1003 115.799301 307.84737 116.887506 
C 300.594441 117.975711 293.653996 120.589512 287.485056 124.556041 
C 281.316116 128.52257 276.057743 133.752411 272.05771 139.89968 
C 268.057676 146.046949 265.406153 152.97307 264.278504 160.219971 
C 263.150855 167.466873 263.572499 174.871192 265.515551 181.943231 
C 267.458603 189.015269 270.879261 195.595605 275.551294 201.249036 
C 280.223327 206.902468 286.041416 211.501552 292.62077 214.74212 
C 299.200124 217.982688 306.392428 219.791689 313.722006 220.049482 
C 313.53402 218.330675 313.618603 216.592916 313.972627 214.900492 
C 314.326651 213.208067 314.945695 211.582107 315.806859 210.082764 
C 308.503866 204.18714 302.868204 196.48278 299.461306 187.737202 
C 296.054409 178.991624 294.993294 169.505219 296.383672 160.223035 
C 297.774051 150.940852 301.568165 142.181711 307.388042 134.818211 
C 313.207918 127.454712 320.853656 121.739772 329.563578 118.242723 
" clip-path="url(#pa524df32cf)" style="fill: #1f77b4; opacity: 0.5"/>
   </g>
   <g id="patch_10">
    <path d="M 329.563578 118.242723 
C 339.071532 120.910765 347.623023 126.238657 354.208494 133.597407 
C 360.793964 140.956157 365.143645 150.044321 366.744029 159.788981 
C 368.344413 169.533641 367.129941 179.535615 363.243989 188.614107 
C 359.358037 197.692598 352.95979 205.475714 344.804604 211.044605 
C 345.623434 212.718129 346.151594 214.518836 346.366439 216.369513 
C 346.581284 218.22019 346.479698 220.094004 346.066037 221.910608 
C 354.132998 222.444431 362.217541 221.154146 369.717586 218.135845 
C 377.217631 215.117543 383.942257 210.448059 389.39066 204.475143 
C 394.839063 198.502227 398.872548 191.377926 401.19073 183.632807 
C 403.508912 175.887689 404.052778 167.718914 402.781826 159.734836 
C 401.510874 151.750758 398.457456 144.15462 393.848971 137.512129 
C 389.240485 130.869638 383.194246 125.349886 376.160534 121.363946 
C 369.126822 117.378006 361.284689 115.027343 353.218161 114.48702 
C 345.151633 113.946696 337.066053 115.230466 329.563578 118.242723 
" clip-path="url(#pa524df32cf)" style="fill: #ff7f0e; opacity: 0.5"/>
   </g>
   <g id="patch_11">
    <path d="M 329.563578 118.242723 
C 320.853656 121.739772 313.207918 127.454712 307.388042 134.818211 
C 301.568165 142.181711 297.774051 150.940852 296.383672 160.223035 
C 294.993294 169.505219 296.054409 178.991624 299.461306 187.737202 
C 302.868204 196.48278 308.503866 204.18714 315.806859 210.082764 
C 317.291914 207.497183 319.453345 205.36412 322.058318 203.913351 
C 324.663291 202.462582 327.614785 201.748141 330.59486 201.846988 
C 333.574935 201.945836 336.472598 202.854291 338.975708 204.474493 
C 341.478819 206.094694 343.494149 208.366299 344.804604 211.044605 
C 352.95979 205.475714 359.358037 197.692598 363.243989 188.614107 
C 367.129941 179.535615 368.344413 169.533641 366.744029 159.788981 
C 365.143645 150.044321 360.793964 140.956157 354.208494 133.597407 
C 347.623023 126.238657 339.071532 120.910765 329.563578 118.242723 
" clip-path="url(#pa524df32cf)" style="fill: #c8ac88; opacity: 0.5"/>
   </g>
   <g id="patch_12">
    <path d="M 313.722006 220.049482 
C 314.144249 223.910155 315.922336 227.498702 318.738264 230.173329 
C 321.554192 232.847957 325.229447 234.439108 329.106728 234.662213 
C 332.984009 234.885317 336.817518 233.726232 339.921649 231.392254 
C 343.02578 229.058276 345.203749 225.697366 346.066037 221.910608 
C 343.238156 221.723475 340.429465 221.313313 337.666165 220.683946 
C 334.902865 220.054579 332.193578 219.207972 329.563578 218.152023 
C 326.991863 218.873675 324.368256 219.39566 321.716164 219.713321 
C 319.064072 220.030981 316.391404 220.143369 313.722006 220.049482 
" clip-path="url(#pa524df32cf)" style="fill: #2ca02c; opacity: 0.5"/>
   </g>
   <g id="patch_13">
    <path d="M 313.722006 220.049482 
C 316.391404 220.143369 319.064072 220.030981 321.716164 219.713321 
C 324.368256 219.39566 326.991863 218.873675 329.563578 218.152023 
C 327.08661 217.157516 324.687037 215.980156 322.384721 214.62969 
C 320.082406 213.279224 317.883718 211.759389 315.806859 210.082764 
C 314.945695 211.582107 314.326651 213.208067 313.972627 214.900492 
C 313.618603 216.592916 313.53402 218.330675 313.722006 220.049482 
" clip-path="url(#pa524df32cf)" style="fill: #34c39d; opacity: 0.5"/>
   </g>
   <g id="patch_14">
    <path d="M 344.804604 211.044605 
C 342.478448 212.633056 340.026796 214.029442 337.473965 215.219916 
C 334.921134 216.410389 332.275592 217.391 329.563578 218.152023 
C 332.193578 219.207972 334.902865 220.054579 337.666165 220.683946 
C 340.429465 221.313313 343.238156 221.723475 346.066037 221.910608 
C 346.479698 220.094004 346.581284 218.22019 346.366439 216.369513 
C 346.151594 214.518836 345.623434 212.718129 344.804604 211.044605 
" clip-path="url(#pa524df32cf)" style="fill: #d1c929; opacity: 0.5"/>
   </g>
   <g id="patch_15">
    <path d="M 315.806859 210.082764 
C 317.883718 211.759389 320.082406 213.279224 322.384721 214.62969 
C 324.687037 215.980156 327.08661 217.157516 329.563578 218.152023 
C 332.275592 217.391 334.921134 216.410389 337.473965 215.219916 
C 340.026796 214.029442 342.478448 212.633056 344.804604 211.044605 
C 343.494149 208.366299 341.478819 206.094694 338.975708 204.474493 
C 336.472598 202.854291 333.574935 201.945836 330.59486 201.846988 
C 327.614785 201.748141 324.663291 202.462582 322.058318 203.913351 
C 319.453345 205.36412 317.291914 207.497183 315.806859 210.082764 
" clip-path="url(#pa524df32cf)" style="fill: #84a25f; opacity: 0.5"/>
   </g>
   <g id="text_11">
    <text style="font: 10px 'DejaVu Sans', 'Bitstream Vera Sans', 'Computer Modern Sans Serif', 'Lucida Grande', 'Verdana', 'Geneva', 'Lucid', 'Arial', 'Helvetica', 'Avant Garde', sans-serif; text-anchor: middle" x="280.387797" y="168.63875" transform="rotate(-0 280.387797 168.63875)">4458</text>
   </g>
   <g id="text_12">
    <text style="font: 10px 'DejaVu Sans', 'Bitstream Vera Sans', 'Computer Modern Sans Serif', 'Lucida Grande', 'Verdana', 'Geneva', 'Lucid', 'Arial', 'Helvetica', 'Avant Garde', sans-serif; text-anchor: middle" x="384.415215" y="168.394819" transform="rotate(-0 384.415215 168.394819)">5358</text>
   </g>
   <g id="text_13">
    <text style="font: 10px 'DejaVu Sans', 'Bitstream Vera Sans', 'Computer Modern Sans Serif', 'Lucida Grande', 'Verdana', 'Geneva', 'Lucid', 'Arial', 'Helvetica', 'Avant Garde', sans-serif; text-anchor: middle" x="332.258432" y="176.665202" transform="rotate(-0 332.258432 176.665202)">6976</text>
   </g>
   <g id="text_14">
    <text style="font: 10px 'DejaVu Sans', 'Bitstream Vera Sans', 'Computer Modern Sans Serif', 'Lucida Grande', 'Verdana', 'Geneva', 'Lucid', 'Arial', 'Helvetica', 'Avant Garde', sans-serif; text-anchor: middle" x="329.229266" y="234.791848" transform="rotate(-0 329.229266 234.791848)">529</text>
   </g>
   <g id="text_15">
    <text style="font: 10px 'DejaVu Sans', 'Bitstream Vera Sans', 'Computer Modern Sans Serif', 'Lucida Grande', 'Verdana', 'Geneva', 'Lucid', 'Arial', 'Helvetica', 'Avant Garde', sans-serif; text-anchor: middle" x="317.929445" y="218.79652" transform="rotate(-0 317.929445 218.79652)">107</text>
   </g>
   <g id="text_16">
    <text style="font: 10px 'DejaVu Sans', 'Bitstream Vera Sans', 'Computer Modern Sans Serif', 'Lucida Grande', 'Verdana', 'Geneva', 'Lucid', 'Arial', 'Helvetica', 'Avant Garde', sans-serif; text-anchor: middle" x="342.092972" y="219.87718" transform="rotate(-0 342.092972 219.87718)">123</text>
   </g>
   <g id="text_17">
    <text style="font: 10px 'DejaVu Sans', 'Bitstream Vera Sans', 'Computer Modern Sans Serif', 'Lucida Grande', 'Verdana', 'Geneva', 'Lucid', 'Arial', 'Helvetica', 'Avant Garde', sans-serif; text-anchor: middle" x="330.522447" y="207.531208" transform="rotate(-0 330.522447 207.531208)">442</text>
   </g>
   <g id="text_18">
    <text style="font: 12px 'DejaVu Sans', 'Bitstream Vera Sans', 'Computer Modern Sans Serif', 'Lucida Grande', 'Verdana', 'Geneva', 'Lucid', 'Arial', 'Helvetica', 'Avant Garde', sans-serif; text-anchor: end" x="289.603642" y="116.313203" transform="rotate(-0 289.603642 116.313203)">Behavior</text>
   </g>
   <g id="text_19">
    <text style="font: 12px 'DejaVu Sans', 'Bitstream Vera Sans', 'Computer Modern Sans Serif', 'Lucida Grande', 'Verdana', 'Geneva', 'Lucid', 'Arial', 'Helvetica', 'Avant Garde', sans-serif; text-anchor: start" x="376.535814" y="114.366662" transform="rotate(-0 376.535814 114.366662)">Blended</text>
   </g>
   <g id="text_20">
    <text style="font: 12px 'DejaVu Sans', 'Bitstream Vera Sans', 'Computer Modern Sans Serif', 'Lucida Grande', 'Verdana', 'Geneva', 'Lucid', 'Arial', 'Helvetica', 'Avant Garde', sans-serif; text-anchor: middle" x="330.050327" y="245.450032" transform="rotate(-0 330.050327 245.450032)">Growth</text>
   </g>
  </g>
 </g>
 <defs>
  <clipPath id="p355b507be9">
   <rect x="57.6" y="105.650305" width="162.327273" height="137.755391"/>
  </clipPath>
  <clipPath id="pa524df32cf">
   <rect x="252.392727" y="103.097832" width="162.327273" height="142.860337"/>
  </clipPath>
 </defs>
</svg>
